<svg xmlns="http://www.w3.org/2000/svg" viewBox="0 0 24 25" width="24" height="25">
	<style>
		tspan { white-space:pre }
		.shp0 { fill: #df2571 } 
	</style>
	<path id="sign up icon" class="shp0" d="M22.04 2.91C19.47 0.32 15.28 0.32 12.7 2.91C10.84 4.77 10.35 7.47 11.17 9.8L1.36 19.63L0.02 23.64L4.03 24.98L5.22 23.64L9.08 22.3L9.08 19.63L10.56 18.29L11.96 19.63L14.67 16.95L13.35 15.61L15.16 13.81C17.49 14.63 20.18 14.14 22.04 12.27C24.62 9.69 24.62 5.49 22.04 2.91ZM18.88 8.23C17.7 8.23 16.74 7.26 16.74 6.08C16.74 4.89 17.7 3.93 18.88 3.93C20.06 3.93 21.02 4.89 21.02 6.08C21.02 7.26 20.06 8.23 18.88 8.23Z" />
</svg>